<?xml version="1.0" encoding="UTF-8"?><svg id="Honeycomb_1" xmlns="http://www.w3.org/2000/svg" viewBox="0 0 524.94 554.53"><defs><style>.cls-1{fill:#e69200;}</style></defs><polygon class="cls-1" points="311.33 203.1 228.06 203.1 186.45 275.18 186.43 275.21 228.04 347.28 228.06 347.32 311.33 347.32 352.94 275.25 352.96 275.21 311.35 203.14 311.33 203.1"/><polygon class="cls-1" points="228.06 195.3 311.33 195.3 352.94 123.23 352.96 123.19 311.35 51.12 311.33 51.09 228.06 51.09 186.45 123.16 186.43 123.19 228.04 195.27 228.06 195.3"/><polygon class="cls-1" points="444.19 280.13 360.92 280.13 319.31 352.2 319.29 352.24 360.9 424.31 360.92 424.34 444.19 424.34 485.8 352.27 485.82 352.24 444.21 280.16 444.19 280.13"/><polygon class="cls-1" points="319.29 200.22 360.9 272.29 360.92 272.33 444.19 272.33 485.8 200.25 485.82 200.22 444.21 128.15 444.19 128.11 360.92 128.11 319.31 200.18 319.29 200.22"/><polygon class="cls-1" points="220.17 352.24 178.56 280.16 178.54 280.13 95.28 280.13 53.67 352.2 53.64 352.24 95.25 424.31 95.28 424.34 178.54 424.34 220.15 352.27 220.17 352.24"/><polygon class="cls-1" points="95.28 272.33 178.54 272.33 220.15 200.25 220.17 200.22 178.56 128.15 178.54 128.11 95.28 128.11 53.67 200.18 53.64 200.22 95.25 272.29 95.28 272.33"/><polygon class="cls-1" points="311.33 356.77 228.06 356.77 186.45 428.84 186.43 428.88 228.04 500.95 228.06 500.99 311.33 500.99 352.94 428.92 352.96 428.88 311.35 356.81 311.33 356.77"/></svg>